<mxfile host="app.diagrams.net" modified="2023-04-03T17:02:04.706Z" agent="Mozilla/5.0 (Windows NT 10.0; Win64; x64) AppleWebKit/537.36 (KHTML, like Gecko) Chrome/111.0.0.0 Safari/537.36 Edg/111.0.1661.62" etag="2HzBp6ldoZOWS1IKJNa_" version="21.1.4" type="device">
  <diagram name="Page-1" id="t6IPkEwGfNj7ju7UmRx4">
    <mxGraphModel dx="1628" dy="1972" grid="1" gridSize="10" guides="1" tooltips="1" connect="1" arrows="1" fold="1" page="1" pageScale="1" pageWidth="850" pageHeight="1100" math="0" shadow="0">
      <root>
        <mxCell id="0" />
        <mxCell id="1" parent="0" />
        <mxCell id="Y1P2OGkWo0qMnBjNgQvx-39" value="" style="rounded=0;whiteSpace=wrap;html=1;fillColor=default;" parent="1" vertex="1">
          <mxGeometry x="140" y="85" width="820" height="670" as="geometry" />
        </mxCell>
        <mxCell id="Y1P2OGkWo0qMnBjNgQvx-2" value="s" style="ellipse;html=1;shape=startState;fillColor=#000000;strokeColor=#ff0000;" parent="1" vertex="1">
          <mxGeometry x="293" y="178" width="30" height="30" as="geometry" />
        </mxCell>
        <mxCell id="Y1P2OGkWo0qMnBjNgQvx-3" value="" style="edgeStyle=orthogonalEdgeStyle;html=1;verticalAlign=bottom;endArrow=open;endSize=8;strokeColor=#ff0000;rounded=0;entryX=0.5;entryY=0;entryDx=0;entryDy=0;exitX=0.5;exitY=1;exitDx=0;exitDy=0;" parent="1" edge="1">
          <mxGeometry relative="1" as="geometry">
            <mxPoint x="307.5" y="280" as="targetPoint" />
            <Array as="points">
              <mxPoint x="307.5" y="230" />
              <mxPoint x="307.5" y="230" />
            </Array>
            <mxPoint x="307.5" y="205" as="sourcePoint" />
          </mxGeometry>
        </mxCell>
        <mxCell id="Y1P2OGkWo0qMnBjNgQvx-5" value="" style="endArrow=none;html=1;rounded=0;exitX=0.5;exitY=1;exitDx=0;exitDy=0;entryX=0.5;entryY=0;entryDx=0;entryDy=0;" parent="1" source="Y1P2OGkWo0qMnBjNgQvx-39" target="Y1P2OGkWo0qMnBjNgQvx-39" edge="1">
          <mxGeometry width="50" height="50" relative="1" as="geometry">
            <mxPoint x="420" y="760" as="sourcePoint" />
            <mxPoint x="425" y="-20" as="targetPoint" />
          </mxGeometry>
        </mxCell>
        <mxCell id="Y1P2OGkWo0qMnBjNgQvx-8" value="&lt;font style=&quot;font-size: 30px;&quot;&gt;&lt;b&gt;User&lt;/b&gt;&lt;/font&gt;" style="text;html=1;align=center;verticalAlign=middle;resizable=0;points=[];autosize=1;strokeColor=none;fillColor=none;fontSize=25;" parent="1" vertex="1">
          <mxGeometry x="290" y="103" width="90" height="50" as="geometry" />
        </mxCell>
        <mxCell id="Y1P2OGkWo0qMnBjNgQvx-9" value="&lt;font style=&quot;font-size: 30px;&quot;&gt;&lt;b&gt;System&lt;/b&gt;&lt;/font&gt;" style="text;html=1;align=center;verticalAlign=middle;resizable=0;points=[];autosize=1;strokeColor=none;fillColor=none;fontSize=25;" parent="1" vertex="1">
          <mxGeometry x="680" y="103" width="130" height="50" as="geometry" />
        </mxCell>
        <mxCell id="Y1P2OGkWo0qMnBjNgQvx-10" value="Rate Our Product" style="rounded=1;whiteSpace=wrap;html=1;arcSize=40;" parent="1" vertex="1">
          <mxGeometry x="248" y="280" width="120" height="40" as="geometry" />
        </mxCell>
        <mxCell id="Y1P2OGkWo0qMnBjNgQvx-14" value="Rate the Delivery&lt;br&gt;Person" style="rounded=1;whiteSpace=wrap;html=1;arcSize=40;" parent="1" vertex="1">
          <mxGeometry x="251" y="400" width="120" height="40" as="geometry" />
        </mxCell>
        <mxCell id="Y1P2OGkWo0qMnBjNgQvx-16" value="Update the Feedback&lt;br&gt;to the Database" style="rounded=1;whiteSpace=wrap;html=1;arcSize=40;" parent="1" vertex="1">
          <mxGeometry x="710" y="460" width="130" height="40" as="geometry" />
        </mxCell>
        <mxCell id="Y1P2OGkWo0qMnBjNgQvx-21" value="Rate our&amp;nbsp;&lt;br&gt;Website" style="rounded=1;whiteSpace=wrap;html=1;arcSize=40;" parent="1" vertex="1">
          <mxGeometry x="248" y="520" width="120" height="40" as="geometry" />
        </mxCell>
        <mxCell id="EaJXzUOAuajd5n7Rvvmr-2" value="" style="edgeStyle=orthogonalEdgeStyle;html=1;verticalAlign=bottom;endArrow=open;endSize=8;strokeColor=#ff0000;rounded=0;entryX=0.5;entryY=0;entryDx=0;entryDy=0;exitX=0.5;exitY=1;exitDx=0;exitDy=0;" parent="1" edge="1">
          <mxGeometry relative="1" as="geometry">
            <mxPoint x="306" y="400" as="targetPoint" />
            <mxPoint x="334" y="320" as="sourcePoint" />
            <Array as="points">
              <mxPoint x="306" y="360" />
              <mxPoint x="306" y="360" />
            </Array>
          </mxGeometry>
        </mxCell>
        <mxCell id="EaJXzUOAuajd5n7Rvvmr-3" value="" style="edgeStyle=orthogonalEdgeStyle;html=1;verticalAlign=bottom;endArrow=open;endSize=8;strokeColor=#ff0000;rounded=0;entryX=0.5;entryY=0;entryDx=0;entryDy=0;" parent="1" edge="1">
          <mxGeometry relative="1" as="geometry">
            <mxPoint x="306" y="520" as="targetPoint" />
            <mxPoint x="310" y="440" as="sourcePoint" />
            <Array as="points">
              <mxPoint x="306" y="480" />
              <mxPoint x="306" y="480" />
            </Array>
          </mxGeometry>
        </mxCell>
        <mxCell id="EaJXzUOAuajd5n7Rvvmr-4" value="Suggestions or&lt;br&gt;Feedback" style="rounded=1;whiteSpace=wrap;html=1;arcSize=40;" parent="1" vertex="1">
          <mxGeometry x="253" y="640" width="120" height="40" as="geometry" />
        </mxCell>
        <mxCell id="EaJXzUOAuajd5n7Rvvmr-7" value="" style="endArrow=none;html=1;entryX=1;entryY=0.117;entryDx=0;entryDy=0;entryPerimeter=0;" parent="1" edge="1">
          <mxGeometry width="50" height="50" relative="1" as="geometry">
            <mxPoint x="140" y="163" as="sourcePoint" />
            <mxPoint x="960" y="161.3900000000001" as="targetPoint" />
          </mxGeometry>
        </mxCell>
        <mxCell id="EaJXzUOAuajd5n7Rvvmr-10" value="" style="ellipse;html=1;shape=endState;fillColor=#000000;strokeColor=#ff0000;" parent="1" vertex="1">
          <mxGeometry x="900" y="465" width="30" height="30" as="geometry" />
        </mxCell>
        <mxCell id="EaJXzUOAuajd5n7Rvvmr-16" value="" style="endArrow=classic;strokeColor=#ff0000;html=1;" parent="1" edge="1">
          <mxGeometry width="50" height="50" relative="1" as="geometry">
            <mxPoint x="374" y="661" as="sourcePoint" />
            <mxPoint x="784" y="500" as="targetPoint" />
            <Array as="points">
              <mxPoint x="785" y="661" />
              <mxPoint x="784" y="611" />
            </Array>
          </mxGeometry>
        </mxCell>
        <mxCell id="sJTh7gAGqJlVFufoG2R5-1" value="&lt;font face=&quot;Comic Sans MS&quot; style=&quot;font-size: 38px;&quot;&gt;&lt;b&gt;Feedback Activity Diagram&lt;/b&gt;&lt;/font&gt;" style="rounded=0;whiteSpace=wrap;html=1;" parent="1" vertex="1">
          <mxGeometry x="295" y="-10" width="525" height="60" as="geometry" />
        </mxCell>
        <mxCell id="dO2Uz8fJOfmcLhxYcU5D-1" value="" style="endArrow=classic;html=1;rounded=0;entryX=0;entryY=0.5;entryDx=0;entryDy=0;strokeColor=#FF0000;" parent="1" target="EaJXzUOAuajd5n7Rvvmr-10" edge="1">
          <mxGeometry width="50" height="50" relative="1" as="geometry">
            <mxPoint x="840" y="480" as="sourcePoint" />
            <mxPoint x="890" y="430" as="targetPoint" />
          </mxGeometry>
        </mxCell>
        <mxCell id="nOsVxpu6VTlSotDVbmfS-2" value="" style="edgeStyle=orthogonalEdgeStyle;html=1;verticalAlign=bottom;endArrow=open;endSize=8;strokeColor=#ff0000;rounded=0;entryX=0.5;entryY=0;entryDx=0;entryDy=0;" parent="1" edge="1">
          <mxGeometry relative="1" as="geometry">
            <mxPoint x="306" y="640" as="targetPoint" />
            <mxPoint x="310" y="560" as="sourcePoint" />
            <Array as="points">
              <mxPoint x="306" y="600" />
              <mxPoint x="306" y="600" />
            </Array>
          </mxGeometry>
        </mxCell>
      </root>
    </mxGraphModel>
  </diagram>
</mxfile>
